<mxfile host="app.diagrams.net" agent="Mozilla/5.0 (Windows NT 10.0; Win64; x64) AppleWebKit/537.36 (KHTML, like Gecko) Chrome/132.0.0.0 Safari/537.36 OPR/117.0.0.0 (Edition Yx 05)" version="26.0.16">
  <diagram name="Страница — 1" id="WVJg3wNbLgCCRATo3Uu6">
    <mxGraphModel dx="1358" dy="733" grid="1" gridSize="10" guides="1" tooltips="1" connect="1" arrows="1" fold="1" page="1" pageScale="1" pageWidth="827" pageHeight="1169" math="0" shadow="0">
      <root>
        <mxCell id="0" />
        <mxCell id="1" parent="0" />
        <mxCell id="oRPwp6rMMMnU2pBGO9Km-1" value="&lt;div style=&quot;text-align: center;&quot;&gt;&lt;span style=&quot;text-align: start; background-color: rgb(251, 251, 251);&quot;&gt;Сформировать из имеющегося массива строк новый массив из строк, длина которых меньше или равна 3 символам.&lt;/span&gt;&lt;/div&gt;" style="rounded=1;whiteSpace=wrap;html=1;" vertex="1" parent="1">
          <mxGeometry x="10" y="10" width="210" height="120" as="geometry" />
        </mxCell>
        <mxCell id="oRPwp6rMMMnU2pBGO9Km-4" style="edgeStyle=orthogonalEdgeStyle;rounded=0;orthogonalLoop=1;jettySize=auto;html=1;exitX=0.5;exitY=1;exitDx=0;exitDy=0;entryX=0.5;entryY=0;entryDx=0;entryDy=0;" edge="1" parent="1" source="oRPwp6rMMMnU2pBGO9Km-2" target="oRPwp6rMMMnU2pBGO9Km-3">
          <mxGeometry relative="1" as="geometry" />
        </mxCell>
        <mxCell id="oRPwp6rMMMnU2pBGO9Km-2" value="Start" style="ellipse;whiteSpace=wrap;html=1;" vertex="1" parent="1">
          <mxGeometry x="320" y="70" width="150" height="60" as="geometry" />
        </mxCell>
        <mxCell id="oRPwp6rMMMnU2pBGO9Km-6" style="edgeStyle=orthogonalEdgeStyle;rounded=0;orthogonalLoop=1;jettySize=auto;html=1;exitX=0.5;exitY=1;exitDx=0;exitDy=0;entryX=0.5;entryY=0;entryDx=0;entryDy=0;" edge="1" parent="1" source="oRPwp6rMMMnU2pBGO9Km-3" target="oRPwp6rMMMnU2pBGO9Km-5">
          <mxGeometry relative="1" as="geometry" />
        </mxCell>
        <mxCell id="oRPwp6rMMMnU2pBGO9Km-3" value="array&lt;div&gt;size&lt;/div&gt;" style="shape=parallelogram;perimeter=parallelogramPerimeter;whiteSpace=wrap;html=1;fixedSize=1;" vertex="1" parent="1">
          <mxGeometry x="320" y="160" width="150" height="60" as="geometry" />
        </mxCell>
        <mxCell id="oRPwp6rMMMnU2pBGO9Km-8" style="edgeStyle=orthogonalEdgeStyle;rounded=0;orthogonalLoop=1;jettySize=auto;html=1;entryX=0.5;entryY=0;entryDx=0;entryDy=0;" edge="1" parent="1" source="oRPwp6rMMMnU2pBGO9Km-5" target="oRPwp6rMMMnU2pBGO9Km-7">
          <mxGeometry relative="1" as="geometry" />
        </mxCell>
        <mxCell id="oRPwp6rMMMnU2pBGO9Km-5" value="&lt;span style=&quot;background-color: transparent; color: light-dark(rgb(0, 0, 0), rgb(255, 255, 255));&quot;&gt;i = 0&lt;/span&gt;&lt;div&gt;index = 0&lt;/div&gt;" style="rounded=1;whiteSpace=wrap;html=1;" vertex="1" parent="1">
          <mxGeometry x="320" y="250" width="150" height="70" as="geometry" />
        </mxCell>
        <mxCell id="oRPwp6rMMMnU2pBGO9Km-13" style="edgeStyle=orthogonalEdgeStyle;rounded=0;orthogonalLoop=1;jettySize=auto;html=1;entryX=0.5;entryY=0;entryDx=0;entryDy=0;" edge="1" parent="1" source="oRPwp6rMMMnU2pBGO9Km-7" target="oRPwp6rMMMnU2pBGO9Km-9">
          <mxGeometry relative="1" as="geometry" />
        </mxCell>
        <mxCell id="oRPwp6rMMMnU2pBGO9Km-60" style="edgeStyle=orthogonalEdgeStyle;rounded=0;orthogonalLoop=1;jettySize=auto;html=1;entryX=0;entryY=0.5;entryDx=0;entryDy=0;" edge="1" parent="1" source="oRPwp6rMMMnU2pBGO9Km-7" target="oRPwp6rMMMnU2pBGO9Km-36">
          <mxGeometry relative="1" as="geometry" />
        </mxCell>
        <mxCell id="oRPwp6rMMMnU2pBGO9Km-7" value="i &amp;lt; size" style="rhombus;whiteSpace=wrap;html=1;" vertex="1" parent="1">
          <mxGeometry x="320" y="370" width="150" height="80" as="geometry" />
        </mxCell>
        <mxCell id="oRPwp6rMMMnU2pBGO9Km-56" value="" style="edgeStyle=orthogonalEdgeStyle;rounded=0;orthogonalLoop=1;jettySize=auto;html=1;entryX=0.538;entryY=0;entryDx=0;entryDy=0;entryPerimeter=0;" edge="1" parent="1" source="oRPwp6rMMMnU2pBGO9Km-9" target="oRPwp6rMMMnU2pBGO9Km-10">
          <mxGeometry relative="1" as="geometry">
            <Array as="points">
              <mxPoint x="210" y="530" />
              <mxPoint x="210" y="570" />
            </Array>
          </mxGeometry>
        </mxCell>
        <mxCell id="oRPwp6rMMMnU2pBGO9Km-57" style="edgeStyle=orthogonalEdgeStyle;rounded=0;orthogonalLoop=1;jettySize=auto;html=1;exitX=1;exitY=0.5;exitDx=0;exitDy=0;entryX=1;entryY=0.5;entryDx=0;entryDy=0;" edge="1" parent="1" source="oRPwp6rMMMnU2pBGO9Km-9" target="oRPwp6rMMMnU2pBGO9Km-14">
          <mxGeometry relative="1" as="geometry">
            <mxPoint x="450" y="680" as="targetPoint" />
            <Array as="points">
              <mxPoint x="520" y="530" />
              <mxPoint x="520" y="675" />
            </Array>
          </mxGeometry>
        </mxCell>
        <mxCell id="oRPwp6rMMMnU2pBGO9Km-9" value="array[i].Lenght &amp;lt;= 3" style="rhombus;whiteSpace=wrap;html=1;" vertex="1" parent="1">
          <mxGeometry x="320" y="490" width="150" height="80" as="geometry" />
        </mxCell>
        <mxCell id="oRPwp6rMMMnU2pBGO9Km-58" style="edgeStyle=orthogonalEdgeStyle;rounded=0;orthogonalLoop=1;jettySize=auto;html=1;entryX=0.5;entryY=0;entryDx=0;entryDy=0;" edge="1" parent="1" source="oRPwp6rMMMnU2pBGO9Km-10" target="oRPwp6rMMMnU2pBGO9Km-14">
          <mxGeometry relative="1" as="geometry" />
        </mxCell>
        <mxCell id="oRPwp6rMMMnU2pBGO9Km-10" value="newArray[index] = array[i]&lt;br&gt;&lt;span style=&quot;background-color: transparent; color: light-dark(rgb(0, 0, 0), rgb(255, 255, 255));&quot;&gt;index = index + 1&lt;/span&gt;" style="rounded=1;whiteSpace=wrap;html=1;" vertex="1" parent="1">
          <mxGeometry x="140" y="570" width="130" height="60" as="geometry" />
        </mxCell>
        <mxCell id="oRPwp6rMMMnU2pBGO9Km-17" style="edgeStyle=orthogonalEdgeStyle;rounded=0;orthogonalLoop=1;jettySize=auto;html=1;strokeColor=default;entryX=0;entryY=0.5;entryDx=0;entryDy=0;exitX=0;exitY=0.5;exitDx=0;exitDy=0;" edge="1" parent="1" source="oRPwp6rMMMnU2pBGO9Km-14" target="oRPwp6rMMMnU2pBGO9Km-7">
          <mxGeometry relative="1" as="geometry">
            <mxPoint x="400" y="340" as="targetPoint" />
            <Array as="points">
              <mxPoint x="60" y="675" />
              <mxPoint x="60" y="410" />
            </Array>
          </mxGeometry>
        </mxCell>
        <mxCell id="oRPwp6rMMMnU2pBGO9Km-14" value="i = i + 1" style="rounded=1;whiteSpace=wrap;html=1;" vertex="1" parent="1">
          <mxGeometry x="345" y="650" width="100" height="50" as="geometry" />
        </mxCell>
        <mxCell id="oRPwp6rMMMnU2pBGO9Km-18" value="Yes" style="text;html=1;align=center;verticalAlign=middle;whiteSpace=wrap;rounded=0;" vertex="1" parent="1">
          <mxGeometry x="340" y="450" width="60" height="30" as="geometry" />
        </mxCell>
        <mxCell id="oRPwp6rMMMnU2pBGO9Km-19" value="Yes" style="text;html=1;align=center;verticalAlign=middle;whiteSpace=wrap;rounded=0;" vertex="1" parent="1">
          <mxGeometry x="250" y="500" width="60" height="30" as="geometry" />
        </mxCell>
        <mxCell id="oRPwp6rMMMnU2pBGO9Km-20" value="No" style="text;html=1;align=center;verticalAlign=middle;whiteSpace=wrap;rounded=0;" vertex="1" parent="1">
          <mxGeometry x="470" y="500" width="60" height="30" as="geometry" />
        </mxCell>
        <mxCell id="oRPwp6rMMMnU2pBGO9Km-51" value="" style="edgeStyle=orthogonalEdgeStyle;rounded=0;orthogonalLoop=1;jettySize=auto;html=1;" edge="1" parent="1" source="oRPwp6rMMMnU2pBGO9Km-36" target="oRPwp6rMMMnU2pBGO9Km-38">
          <mxGeometry relative="1" as="geometry" />
        </mxCell>
        <mxCell id="oRPwp6rMMMnU2pBGO9Km-36" value="Print newArray" style="shape=document;whiteSpace=wrap;html=1;boundedLbl=1;" vertex="1" parent="1">
          <mxGeometry x="615" y="370" width="120" height="80" as="geometry" />
        </mxCell>
        <mxCell id="oRPwp6rMMMnU2pBGO9Km-38" value="End" style="ellipse;whiteSpace=wrap;html=1;" vertex="1" parent="1">
          <mxGeometry x="600" y="490" width="150" height="60" as="geometry" />
        </mxCell>
        <mxCell id="oRPwp6rMMMnU2pBGO9Km-59" value="No" style="text;html=1;align=center;verticalAlign=middle;whiteSpace=wrap;rounded=0;" vertex="1" parent="1">
          <mxGeometry x="470" y="380" width="60" height="30" as="geometry" />
        </mxCell>
      </root>
    </mxGraphModel>
  </diagram>
</mxfile>
